<mxfile host="app.diagrams.net" modified="2021-10-07T22:56:50.703Z" agent="5.0 (Windows NT 10.0; Win64; x64) AppleWebKit/537.36 (KHTML, like Gecko) Chrome/94.0.4606.71 Safari/537.36" etag="L2NLkzOFuI3Qd1yNZqzM" version="15.4.3" type="github">
  <diagram id="tBOEAaYhhbJr7wEglncB" name="Page-1">
    <mxGraphModel dx="1422" dy="794" grid="1" gridSize="10" guides="1" tooltips="1" connect="1" arrows="1" fold="1" page="1" pageScale="1" pageWidth="827" pageHeight="1169" math="0" shadow="0">
      <root>
        <mxCell id="0" />
        <mxCell id="1" parent="0" />
        <mxCell id="0nx9uezL-M9xThHrjuCV-3" style="edgeStyle=orthogonalEdgeStyle;rounded=0;orthogonalLoop=1;jettySize=auto;html=1;exitX=0.5;exitY=1;exitDx=0;exitDy=0;entryX=0;entryY=0;entryDx=50;entryDy=0;entryPerimeter=0;fontSize=8;" edge="1" parent="1" source="0nx9uezL-M9xThHrjuCV-1" target="0nx9uezL-M9xThHrjuCV-2">
          <mxGeometry relative="1" as="geometry" />
        </mxCell>
        <mxCell id="0nx9uezL-M9xThHrjuCV-1" value="&lt;font style=&quot;vertical-align: inherit&quot;&gt;&lt;font style=&quot;vertical-align: inherit&quot;&gt;INICIO&amp;nbsp;&lt;/font&gt;&lt;/font&gt;" style="ellipse;whiteSpace=wrap;html=1;labelBackgroundColor=#FFFF33;labelBorderColor=none;fontStyle=1" vertex="1" parent="1">
          <mxGeometry x="50" y="30" width="100" height="60" as="geometry" />
        </mxCell>
        <mxCell id="0nx9uezL-M9xThHrjuCV-5" style="edgeStyle=orthogonalEdgeStyle;rounded=0;orthogonalLoop=1;jettySize=auto;html=1;exitX=0;exitY=0;exitDx=50;exitDy=50;exitPerimeter=0;entryX=0.375;entryY=0.333;entryDx=0;entryDy=0;entryPerimeter=0;fontSize=8;" edge="1" parent="1" source="0nx9uezL-M9xThHrjuCV-2" target="0nx9uezL-M9xThHrjuCV-4">
          <mxGeometry relative="1" as="geometry" />
        </mxCell>
        <mxCell id="0nx9uezL-M9xThHrjuCV-2" value="NOME DO EVENTO" style="shape=display;whiteSpace=wrap;html=1;labelBackgroundColor=#FFFF33;labelBorderColor=none;fontSize=8;fontStyle=1" vertex="1" parent="1">
          <mxGeometry x="50" y="120" width="100" height="50" as="geometry" />
        </mxCell>
        <mxCell id="0nx9uezL-M9xThHrjuCV-7" style="edgeStyle=orthogonalEdgeStyle;rounded=0;orthogonalLoop=1;jettySize=auto;html=1;exitX=0.5;exitY=1;exitDx=0;exitDy=0;entryX=0.6;entryY=0;entryDx=0;entryDy=0;entryPerimeter=0;fontSize=8;" edge="1" parent="1" source="0nx9uezL-M9xThHrjuCV-4" target="0nx9uezL-M9xThHrjuCV-6">
          <mxGeometry relative="1" as="geometry" />
        </mxCell>
        <mxCell id="0nx9uezL-M9xThHrjuCV-4" value="EVENTO" style="shape=manualInput;whiteSpace=wrap;html=1;labelBackgroundColor=#FFFF33;labelBorderColor=none;fontSize=8;fontStyle=1;labelPosition=center;verticalLabelPosition=middle;align=center;verticalAlign=middle;" vertex="1" parent="1">
          <mxGeometry x="70" y="190" width="80" height="60" as="geometry" />
        </mxCell>
        <mxCell id="0nx9uezL-M9xThHrjuCV-9" style="edgeStyle=orthogonalEdgeStyle;rounded=0;orthogonalLoop=1;jettySize=auto;html=1;exitX=0;exitY=0;exitDx=50;exitDy=50;exitPerimeter=0;entryX=0.5;entryY=0.2;entryDx=0;entryDy=0;entryPerimeter=0;fontSize=8;" edge="1" parent="1" source="0nx9uezL-M9xThHrjuCV-6" target="0nx9uezL-M9xThHrjuCV-8">
          <mxGeometry relative="1" as="geometry" />
        </mxCell>
        <mxCell id="0nx9uezL-M9xThHrjuCV-6" value="DATA DO EVENTO" style="shape=display;whiteSpace=wrap;html=1;labelBackgroundColor=#FFFF33;labelBorderColor=none;fontSize=8;fontStyle=1" vertex="1" parent="1">
          <mxGeometry x="50" y="300" width="100" height="50" as="geometry" />
        </mxCell>
        <mxCell id="0nx9uezL-M9xThHrjuCV-11" style="edgeStyle=orthogonalEdgeStyle;rounded=0;orthogonalLoop=1;jettySize=auto;html=1;exitX=0.5;exitY=1;exitDx=0;exitDy=0;entryX=0.5;entryY=0;entryDx=0;entryDy=0;fontSize=8;" edge="1" parent="1" source="0nx9uezL-M9xThHrjuCV-8" target="0nx9uezL-M9xThHrjuCV-10">
          <mxGeometry relative="1" as="geometry" />
        </mxCell>
        <mxCell id="0nx9uezL-M9xThHrjuCV-8" value="DATA" style="shape=manualInput;whiteSpace=wrap;html=1;labelBackgroundColor=#FFFF33;labelBorderColor=none;fontSize=8;fontStyle=1;labelPosition=center;verticalLabelPosition=middle;align=center;verticalAlign=middle;" vertex="1" parent="1">
          <mxGeometry x="60" y="380" width="80" height="60" as="geometry" />
        </mxCell>
        <mxCell id="0nx9uezL-M9xThHrjuCV-13" style="edgeStyle=orthogonalEdgeStyle;rounded=0;orthogonalLoop=1;jettySize=auto;html=1;exitX=1;exitY=0.5;exitDx=0;exitDy=0;entryX=0;entryY=0.5;entryDx=0;entryDy=0;entryPerimeter=0;fontSize=8;" edge="1" parent="1" source="0nx9uezL-M9xThHrjuCV-10" target="0nx9uezL-M9xThHrjuCV-12">
          <mxGeometry relative="1" as="geometry" />
        </mxCell>
        <mxCell id="0nx9uezL-M9xThHrjuCV-16" style="edgeStyle=orthogonalEdgeStyle;rounded=0;orthogonalLoop=1;jettySize=auto;html=1;exitX=0.5;exitY=1;exitDx=0;exitDy=0;entryX=0;entryY=0;entryDx=50;entryDy=0;entryPerimeter=0;fontSize=8;" edge="1" parent="1" source="0nx9uezL-M9xThHrjuCV-10" target="0nx9uezL-M9xThHrjuCV-15">
          <mxGeometry relative="1" as="geometry" />
        </mxCell>
        <mxCell id="0nx9uezL-M9xThHrjuCV-10" value="DATA&amp;nbsp; ATUAL &amp;gt;&lt;br&gt;DATA&amp;nbsp; EVENTO" style="rhombus;whiteSpace=wrap;html=1;labelBackgroundColor=#FFFF33;labelBorderColor=none;fontSize=8;" vertex="1" parent="1">
          <mxGeometry x="60" y="470" width="80" height="80" as="geometry" />
        </mxCell>
        <mxCell id="0nx9uezL-M9xThHrjuCV-14" style="edgeStyle=orthogonalEdgeStyle;rounded=0;orthogonalLoop=1;jettySize=auto;html=1;exitX=0;exitY=0;exitDx=50;exitDy=0;exitPerimeter=0;entryX=1;entryY=0.5;entryDx=0;entryDy=0;entryPerimeter=0;fontSize=8;" edge="1" parent="1" source="0nx9uezL-M9xThHrjuCV-12" target="0nx9uezL-M9xThHrjuCV-6">
          <mxGeometry relative="1" as="geometry" />
        </mxCell>
        <mxCell id="0nx9uezL-M9xThHrjuCV-12" value="DATA&amp;nbsp; INVALIDA&amp;nbsp;" style="shape=display;whiteSpace=wrap;html=1;labelBackgroundColor=#FFFF33;labelBorderColor=none;fontSize=8;fontStyle=1" vertex="1" parent="1">
          <mxGeometry x="180" y="485" width="100" height="50" as="geometry" />
        </mxCell>
        <mxCell id="0nx9uezL-M9xThHrjuCV-18" style="edgeStyle=orthogonalEdgeStyle;rounded=0;orthogonalLoop=1;jettySize=auto;html=1;exitX=0;exitY=0;exitDx=50;exitDy=50;exitPerimeter=0;entryX=0.5;entryY=0;entryDx=0;entryDy=0;fontSize=8;" edge="1" parent="1" source="0nx9uezL-M9xThHrjuCV-15" target="0nx9uezL-M9xThHrjuCV-17">
          <mxGeometry relative="1" as="geometry" />
        </mxCell>
        <mxCell id="0nx9uezL-M9xThHrjuCV-15" value="DATA&amp;nbsp; VALIDA&amp;nbsp;" style="shape=display;whiteSpace=wrap;html=1;labelBackgroundColor=#FFFF33;labelBorderColor=none;fontSize=8;fontStyle=1" vertex="1" parent="1">
          <mxGeometry x="50" y="580" width="100" height="50" as="geometry" />
        </mxCell>
        <mxCell id="0nx9uezL-M9xThHrjuCV-20" style="edgeStyle=orthogonalEdgeStyle;rounded=0;orthogonalLoop=1;jettySize=auto;html=1;exitX=0.5;exitY=1;exitDx=0;exitDy=0;entryX=0;entryY=0;entryDx=50;entryDy=0;entryPerimeter=0;fontSize=8;" edge="1" parent="1" source="0nx9uezL-M9xThHrjuCV-17" target="0nx9uezL-M9xThHrjuCV-19">
          <mxGeometry relative="1" as="geometry" />
        </mxCell>
        <mxCell id="0nx9uezL-M9xThHrjuCV-17" value="NOME&amp;nbsp;" style="rounded=0;whiteSpace=wrap;html=1;labelBackgroundColor=#FFFF33;labelBorderColor=none;fontSize=8;" vertex="1" parent="1">
          <mxGeometry x="60" y="660" width="80" height="50" as="geometry" />
        </mxCell>
        <mxCell id="0nx9uezL-M9xThHrjuCV-24" style="edgeStyle=orthogonalEdgeStyle;rounded=0;orthogonalLoop=1;jettySize=auto;html=1;exitX=1;exitY=0.5;exitDx=0;exitDy=0;exitPerimeter=0;fontSize=8;" edge="1" parent="1" source="0nx9uezL-M9xThHrjuCV-19" target="0nx9uezL-M9xThHrjuCV-21">
          <mxGeometry relative="1" as="geometry" />
        </mxCell>
        <mxCell id="0nx9uezL-M9xThHrjuCV-19" value="DIGITE&amp;nbsp; IDADE&amp;nbsp;" style="shape=display;whiteSpace=wrap;html=1;labelBackgroundColor=#FFFF33;labelBorderColor=none;fontSize=8;fontStyle=1" vertex="1" parent="1">
          <mxGeometry x="50" y="740" width="100" height="50" as="geometry" />
        </mxCell>
        <mxCell id="0nx9uezL-M9xThHrjuCV-26" style="edgeStyle=orthogonalEdgeStyle;rounded=0;orthogonalLoop=1;jettySize=auto;html=1;exitX=1;exitY=0.5;exitDx=0;exitDy=0;entryX=0;entryY=0.5;entryDx=0;entryDy=0;fontSize=8;" edge="1" parent="1" source="0nx9uezL-M9xThHrjuCV-21" target="0nx9uezL-M9xThHrjuCV-25">
          <mxGeometry relative="1" as="geometry" />
        </mxCell>
        <mxCell id="0nx9uezL-M9xThHrjuCV-21" value="IDADE" style="shape=manualInput;whiteSpace=wrap;html=1;labelBackgroundColor=#FFFF33;labelBorderColor=none;fontSize=8;fontStyle=1;labelPosition=center;verticalLabelPosition=middle;align=center;verticalAlign=middle;" vertex="1" parent="1">
          <mxGeometry x="200" y="735" width="80" height="60" as="geometry" />
        </mxCell>
        <mxCell id="0nx9uezL-M9xThHrjuCV-29" style="edgeStyle=orthogonalEdgeStyle;rounded=0;orthogonalLoop=1;jettySize=auto;html=1;exitX=0.5;exitY=0;exitDx=0;exitDy=0;entryX=0;entryY=0;entryDx=50;entryDy=50;entryPerimeter=0;fontSize=8;" edge="1" parent="1" source="0nx9uezL-M9xThHrjuCV-25" target="0nx9uezL-M9xThHrjuCV-28">
          <mxGeometry relative="1" as="geometry" />
        </mxCell>
        <mxCell id="0nx9uezL-M9xThHrjuCV-30" style="edgeStyle=orthogonalEdgeStyle;rounded=0;orthogonalLoop=1;jettySize=auto;html=1;exitX=1;exitY=0.5;exitDx=0;exitDy=0;entryX=0;entryY=0.5;entryDx=0;entryDy=0;entryPerimeter=0;fontSize=8;" edge="1" parent="1" source="0nx9uezL-M9xThHrjuCV-25" target="0nx9uezL-M9xThHrjuCV-27">
          <mxGeometry relative="1" as="geometry" />
        </mxCell>
        <mxCell id="0nx9uezL-M9xThHrjuCV-25" value="IDADE &amp;gt;=18" style="rhombus;whiteSpace=wrap;html=1;labelBackgroundColor=#FFFF33;labelBorderColor=none;fontSize=8;" vertex="1" parent="1">
          <mxGeometry x="320" y="725" width="80" height="80" as="geometry" />
        </mxCell>
        <mxCell id="0nx9uezL-M9xThHrjuCV-51" style="edgeStyle=orthogonalEdgeStyle;rounded=0;orthogonalLoop=1;jettySize=auto;html=1;exitX=1;exitY=0.5;exitDx=0;exitDy=0;exitPerimeter=0;entryX=1;entryY=0.5;entryDx=0;entryDy=0;fontSize=8;" edge="1" parent="1" source="0nx9uezL-M9xThHrjuCV-27" target="0nx9uezL-M9xThHrjuCV-47">
          <mxGeometry relative="1" as="geometry" />
        </mxCell>
        <mxCell id="0nx9uezL-M9xThHrjuCV-27" value="CADASTRO NÃO&amp;nbsp;&lt;br&gt;AUTORIZADO" style="shape=display;whiteSpace=wrap;html=1;labelBackgroundColor=#FFFF33;labelBorderColor=none;fontSize=8;fontStyle=1" vertex="1" parent="1">
          <mxGeometry x="430" y="740" width="100" height="50" as="geometry" />
        </mxCell>
        <mxCell id="0nx9uezL-M9xThHrjuCV-32" style="edgeStyle=orthogonalEdgeStyle;rounded=0;orthogonalLoop=1;jettySize=auto;html=1;exitX=0;exitY=0;exitDx=50;exitDy=0;exitPerimeter=0;entryX=0;entryY=0;entryDx=50;entryDy=50;entryPerimeter=0;fontSize=8;" edge="1" parent="1" source="0nx9uezL-M9xThHrjuCV-28" target="0nx9uezL-M9xThHrjuCV-31">
          <mxGeometry relative="1" as="geometry" />
        </mxCell>
        <mxCell id="0nx9uezL-M9xThHrjuCV-28" value="CADASTRADO&amp;nbsp;" style="shape=display;whiteSpace=wrap;html=1;labelBackgroundColor=#FFFF33;labelBorderColor=none;fontSize=8;fontStyle=1" vertex="1" parent="1">
          <mxGeometry x="310" y="650" width="100" height="50" as="geometry" />
        </mxCell>
        <mxCell id="0nx9uezL-M9xThHrjuCV-35" style="edgeStyle=orthogonalEdgeStyle;rounded=0;orthogonalLoop=1;jettySize=auto;html=1;exitX=1;exitY=0.5;exitDx=0;exitDy=0;exitPerimeter=0;entryX=0;entryY=0.5;entryDx=0;entryDy=0;fontSize=8;" edge="1" parent="1" source="0nx9uezL-M9xThHrjuCV-31" target="0nx9uezL-M9xThHrjuCV-33">
          <mxGeometry relative="1" as="geometry" />
        </mxCell>
        <mxCell id="0nx9uezL-M9xThHrjuCV-36" style="edgeStyle=orthogonalEdgeStyle;rounded=0;orthogonalLoop=1;jettySize=auto;html=1;exitX=0;exitY=0;exitDx=50;exitDy=0;exitPerimeter=0;entryX=0.5;entryY=1;entryDx=0;entryDy=0;fontSize=8;" edge="1" parent="1" source="0nx9uezL-M9xThHrjuCV-31" target="0nx9uezL-M9xThHrjuCV-34">
          <mxGeometry relative="1" as="geometry" />
        </mxCell>
        <mxCell id="0nx9uezL-M9xThHrjuCV-31" value="PALESTRANTE OU&lt;br&gt;PARTICIPANTE" style="shape=display;whiteSpace=wrap;html=1;labelBackgroundColor=#FFFF33;labelBorderColor=none;fontSize=8;fontStyle=1" vertex="1" parent="1">
          <mxGeometry x="310" y="570" width="100" height="50" as="geometry" />
        </mxCell>
        <mxCell id="0nx9uezL-M9xThHrjuCV-48" style="edgeStyle=orthogonalEdgeStyle;rounded=0;orthogonalLoop=1;jettySize=auto;html=1;exitX=0.75;exitY=0;exitDx=0;exitDy=0;entryX=0.65;entryY=1.033;entryDx=0;entryDy=0;entryPerimeter=0;fontSize=8;" edge="1" parent="1" source="0nx9uezL-M9xThHrjuCV-33" target="0nx9uezL-M9xThHrjuCV-47">
          <mxGeometry relative="1" as="geometry" />
        </mxCell>
        <mxCell id="0nx9uezL-M9xThHrjuCV-33" value="PALESTRANTE" style="shape=manualInput;whiteSpace=wrap;html=1;labelBackgroundColor=#FFFF33;labelBorderColor=none;fontSize=8;fontStyle=1;labelPosition=center;verticalLabelPosition=middle;align=center;verticalAlign=middle;" vertex="1" parent="1">
          <mxGeometry x="450" y="565" width="80" height="60" as="geometry" />
        </mxCell>
        <mxCell id="0nx9uezL-M9xThHrjuCV-38" style="edgeStyle=orthogonalEdgeStyle;rounded=0;orthogonalLoop=1;jettySize=auto;html=1;exitX=0.5;exitY=0;exitDx=0;exitDy=0;entryX=0.5;entryY=1;entryDx=0;entryDy=0;fontSize=8;" edge="1" parent="1" source="0nx9uezL-M9xThHrjuCV-34" target="0nx9uezL-M9xThHrjuCV-37">
          <mxGeometry relative="1" as="geometry" />
        </mxCell>
        <mxCell id="0nx9uezL-M9xThHrjuCV-34" value="&amp;nbsp; PARTICIPANTE" style="shape=manualInput;whiteSpace=wrap;html=1;labelBackgroundColor=#FFFF33;labelBorderColor=none;fontSize=8;fontStyle=1;labelPosition=center;verticalLabelPosition=middle;align=center;verticalAlign=middle;" vertex="1" parent="1">
          <mxGeometry x="320" y="470" width="80" height="60" as="geometry" />
        </mxCell>
        <mxCell id="0nx9uezL-M9xThHrjuCV-41" style="edgeStyle=orthogonalEdgeStyle;rounded=0;orthogonalLoop=1;jettySize=auto;html=1;exitX=0.5;exitY=0;exitDx=0;exitDy=0;entryX=0.5;entryY=1;entryDx=0;entryDy=0;fontSize=8;" edge="1" parent="1" source="0nx9uezL-M9xThHrjuCV-37" target="0nx9uezL-M9xThHrjuCV-39">
          <mxGeometry relative="1" as="geometry" />
        </mxCell>
        <mxCell id="0nx9uezL-M9xThHrjuCV-37" value="CALCULAR&amp;nbsp;&lt;br&gt;PARTICIPANTES&amp;nbsp;" style="rounded=0;whiteSpace=wrap;html=1;labelBackgroundColor=#FFFF33;labelBorderColor=none;fontSize=8;" vertex="1" parent="1">
          <mxGeometry x="320" y="390" width="80" height="50" as="geometry" />
        </mxCell>
        <mxCell id="0nx9uezL-M9xThHrjuCV-44" style="edgeStyle=orthogonalEdgeStyle;rounded=0;orthogonalLoop=1;jettySize=auto;html=1;exitX=1;exitY=0.5;exitDx=0;exitDy=0;entryX=0;entryY=0.5;entryDx=0;entryDy=0;entryPerimeter=0;fontSize=8;" edge="1" parent="1" source="0nx9uezL-M9xThHrjuCV-39" target="0nx9uezL-M9xThHrjuCV-42">
          <mxGeometry relative="1" as="geometry" />
        </mxCell>
        <mxCell id="0nx9uezL-M9xThHrjuCV-45" style="edgeStyle=orthogonalEdgeStyle;rounded=0;orthogonalLoop=1;jettySize=auto;html=1;exitX=0.5;exitY=0;exitDx=0;exitDy=0;entryX=0;entryY=0;entryDx=50;entryDy=50;entryPerimeter=0;fontSize=8;" edge="1" parent="1" source="0nx9uezL-M9xThHrjuCV-39" target="0nx9uezL-M9xThHrjuCV-43">
          <mxGeometry relative="1" as="geometry" />
        </mxCell>
        <mxCell id="0nx9uezL-M9xThHrjuCV-39" value="PARTICIPANTES&amp;nbsp;&amp;nbsp;&lt;br&gt;&amp;lt; 100" style="rhombus;whiteSpace=wrap;html=1;labelBackgroundColor=#FFFF33;labelBorderColor=none;fontSize=8;" vertex="1" parent="1">
          <mxGeometry x="315" y="260" width="90" height="90" as="geometry" />
        </mxCell>
        <mxCell id="0nx9uezL-M9xThHrjuCV-50" style="edgeStyle=orthogonalEdgeStyle;rounded=0;orthogonalLoop=1;jettySize=auto;html=1;exitX=0;exitY=0;exitDx=56.25;exitDy=50;exitPerimeter=0;entryX=0.65;entryY=0;entryDx=0;entryDy=0;entryPerimeter=0;fontSize=8;" edge="1" parent="1" source="0nx9uezL-M9xThHrjuCV-42" target="0nx9uezL-M9xThHrjuCV-47">
          <mxGeometry relative="1" as="geometry" />
        </mxCell>
        <mxCell id="0nx9uezL-M9xThHrjuCV-42" value="CADASTRO EFETUADO&amp;nbsp;&lt;br&gt;COM SUCESSO&amp;nbsp;" style="shape=display;whiteSpace=wrap;html=1;labelBackgroundColor=#FFFF33;labelBorderColor=none;fontSize=8;fontStyle=1" vertex="1" parent="1">
          <mxGeometry x="440" y="280" width="110" height="50" as="geometry" />
        </mxCell>
        <mxCell id="0nx9uezL-M9xThHrjuCV-52" style="edgeStyle=orthogonalEdgeStyle;rounded=0;orthogonalLoop=1;jettySize=auto;html=1;exitX=0;exitY=0.5;exitDx=0;exitDy=0;exitPerimeter=0;entryX=1;entryY=0.1;entryDx=0;entryDy=0;entryPerimeter=0;fontSize=8;" edge="1" parent="1" source="0nx9uezL-M9xThHrjuCV-43" target="0nx9uezL-M9xThHrjuCV-6">
          <mxGeometry relative="1" as="geometry" />
        </mxCell>
        <mxCell id="0nx9uezL-M9xThHrjuCV-43" value="CADASTRO EXEDIDO" style="shape=display;whiteSpace=wrap;html=1;labelBackgroundColor=#FFFF33;labelBorderColor=none;fontSize=8;fontStyle=1" vertex="1" parent="1">
          <mxGeometry x="310" y="170" width="100" height="50" as="geometry" />
        </mxCell>
        <mxCell id="0nx9uezL-M9xThHrjuCV-47" value="&lt;font style=&quot;vertical-align: inherit&quot;&gt;&lt;font style=&quot;vertical-align: inherit&quot;&gt;FIM&lt;/font&gt;&lt;/font&gt;" style="ellipse;whiteSpace=wrap;html=1;labelBackgroundColor=#FFFF33;labelBorderColor=none;fontStyle=1" vertex="1" parent="1">
          <mxGeometry x="445" y="440" width="100" height="60" as="geometry" />
        </mxCell>
      </root>
    </mxGraphModel>
  </diagram>
</mxfile>
